<svg id="Layer_2" data-name="Layer 2" xmlns="http://www.w3.org/2000/svg" width="89" height="30" viewBox="0 0 89 30">
  <g id="Layer_1" data-name="Layer 1" transform="translate(0 0)">
    <path id="Path_13416" data-name="Path 13416" d="M104.5,7.06a7.7,7.7,0,0,0-5.31,1.923A8.141,8.141,0,0,0,96.948,14.9v2.932c0,1.493-.369,2.045-1.711,2.045H92.852V16.434c0-4.41-3-6.9-8.214-6.9H77.219l5.336-6.551c.705-.894.128-1.824-.99-1.824h-1.66a2.067,2.067,0,0,0-1.5.673L72.044,9.819a1.324,1.324,0,0,0-.256,1.545l.481,1.186a1.333,1.333,0,0,0,1.215.8H84.655c2.974,0,3.964.766,3.964,3.1V19.7H72.893a3.051,3.051,0,0,1-.84-.093,1.737,1.737,0,0,0-1.324,3.2h0a1.865,1.865,0,0,0,.26.112c.189.061.385.122.59.17a7.739,7.739,0,0,0,1.788.2H89.279a1.5,1.5,0,0,0,.247.022h6a5.54,5.54,0,0,0,3.967-1.4,8.887,8.887,0,0,0,5.006,1.676,7.467,7.467,0,0,0,5.313-1.923,7.993,7.993,0,0,0,2.243-5.586V14.569a7.868,7.868,0,0,0-2.243-5.583A7.569,7.569,0,0,0,104.5,7.06Zm3.525,9.4c-.186,2.138-1.253,3.631-3.525,3.631a5.321,5.321,0,0,1-3.57-1.586c0-.244.029-.487.029-.734V15.331c0-.4.032-.734.061-1.192.093-2.073,1.253-3.57,3.48-3.57a3.3,3.3,0,0,1,1.5.276c1.647.731,2.077,2.41,2.077,4.487,0,.4-.032.763-.061,1.128Z" transform="translate(-47.572 -0.788)" fill="#7d7bfa"/>
    <path id="Path_13417" data-name="Path 13417" d="M.135.34h.881L.961,2.711a.147.147,0,0,0,.135.138h.138a.147.147,0,0,0,.135-.138V.34h.875A.144.144,0,0,0,2.372.2V.135A.144.144,0,0,0,2.243,0H.135A.144.144,0,0,0,0,.135V.2A.144.144,0,0,0,.135.34Z" transform="translate(0 0)" fill="#7d7bfa"/>
    <path id="Path_13418" data-name="Path 13418" d="M8.384,2.849h.138a.147.147,0,0,0,.135-.138l.2-1.7V.609A2.791,2.791,0,0,0,9,1.016l.542,1.227a.144.144,0,0,0,.135.135h.138a.144.144,0,0,0,.135-.135l.542-1.221a2.791,2.791,0,0,0,.138-.407v.4l.135,1.7a.147.147,0,0,0,.135.138h.135c.071,0,.071-.071.071-.138L10.894.147A.144.144,0,0,0,10.759,0h-.205a.144.144,0,0,0-.141.135L9.8,1.561c-.071.2-.138.407-.138.407a2.644,2.644,0,0,0-.135-.407L8.929.135A.147.147,0,0,0,8.792,0h-.2a.144.144,0,0,0-.135.135L8.25,2.7a.147.147,0,0,0,.135.151Z" transform="translate(-5.606 0)" fill="#7d7bfa"/>
    <path id="Path_13419" data-name="Path 13419" d="M39.293,77.939H37.761a1.282,1.282,0,0,0-1.282,1.282v1.532a1.282,1.282,0,0,0,1.282,1.311h1.532A1.282,1.282,0,0,0,40.6,80.753V79.218a1.282,1.282,0,0,0-1.311-1.279Z" transform="translate(-24.788 -52.961)" fill="#7d7bfa"/>
    <path id="Path_13420" data-name="Path 13420" d="M55.243,77.939H53.711a1.282,1.282,0,0,0-1.282,1.282v1.532a1.282,1.282,0,0,0,1.282,1.311h1.532a1.282,1.282,0,0,0,1.311-1.311V79.218a1.282,1.282,0,0,0-1.311-1.279Z" transform="translate(-35.699 -52.961)" fill="#7d7bfa"/>
    <path id="Path_13421" data-name="Path 13421" d="M20,17.916H18.719a1.465,1.465,0,0,0-1.532,1.375l.032,9.65c0,1.6-.417,2.141-1.791,2.141H12.047c-1.311,0-1.824-.449-1.824-2.141v-9.65a1.433,1.433,0,0,0-1.5-1.375H7.441a1.468,1.468,0,0,0-1.535,1.375l.032,7.6-.032,6.73c0,3.291-1.247,4.762-4.166,4.762H1.452A1.375,1.375,0,0,0,0,39.709v1.183a1.428,1.428,0,0,0,1.5,1.282h.423a8.77,8.77,0,0,0,6.294-2.266,7.9,7.9,0,0,0,2.013-5.592,7.544,7.544,0,0,0,2.3.349h3.317c3.641,0,5.688-2.109,5.688-5.769v-9.6A1.468,1.468,0,0,0,20,17.916Z" transform="translate(0 -12.173)" fill="#7d7bfa"/>
    <path id="Path_13422" data-name="Path 13422" d="M253.506,7.951h1.471A1.237,1.237,0,0,0,256.2,6.695V5.227A1.231,1.231,0,0,0,254.977,4h-1.471a1.211,1.211,0,0,0-1.227,1.227V6.695a1.218,1.218,0,0,0,1.227,1.256Z" transform="translate(-171.794 -2.718)" fill="#7d7bfa"/>
    <path id="Path_13423" data-name="Path 13423" d="M225.75,9.459c-4.291,0-6.41,2.586-6.656,6.849-.029.458.016.51.016.936s.032.724.061,1.154a1.138,1.138,0,0,0,1.131,1.058h1.474a1.144,1.144,0,0,0,1.138-1.282,6.529,6.529,0,0,1-.048-.92c0-2.394.5-3.772,2.372-4.166h.173l.131-.016a2.843,2.843,0,0,1,2.423.772h0c.772.8.756,1.468.756,3.083v3.384H216.491c-1.308,0-1.772-.468-1.772-2.086l.029-15.107a1.4,1.4,0,0,0-1.5-1.3h-1.215a1.406,1.406,0,0,0-1.5,1.3V18.18c0,3.58,1.993,5.634,5.544,5.634h14.937a1.262,1.262,0,0,0,1.41-1.227V16.125C232.435,11.716,230.393,9.459,225.75,9.459Z" transform="translate(-143.432 -1.23)" fill="#7d7bfa"/>
  </g>
</svg>
